<svg xmlns="http://www.w3.org/2000/svg" viewBox="0 0 205.44 64.76">
    <title>资源 1</title>
    <g id="图层_2" data-name="图层 2">
        <g id="图层_1-2" data-name="图层 1">
            <path d="M55.5,29.71a4.41,4.41,0,0,0-2-.11q-.5.07-1,.11l-1,.11a.73.73,0,0,1,.25-.18.7.7,0,0,0,.25-.18,2.09,2.09,0,0,0,.76-2.23,4.32,4.32,0,0,0-2-2.74,5.86,5.86,0,0,0-2.84-.79,20.45,20.45,0,0,0-5.22.29q-1.15.15-2.74.43t-3.38.65a9.75,9.75,0,0,0-.29-3.49,4.65,4.65,0,0,0-1.22-2.12q-2-1.8-2.74-1.62T33,20.1a6.72,6.72,0,0,1,.9,2.05,9,9,0,0,1,.25,2.12v.65a3.38,3.38,0,0,1-.07.65q-2.81.58-5.26,1.19a30.38,30.38,0,0,0-3.53,1q-.72.36-1.44.65,1.73-2.45,3.82-5.26t4.46-5.9a49.19,49.19,0,0,1,6.19-2.56l5.54-1.84A1.86,1.86,0,0,0,45.09,12q.22-.58-.65-.86a6.67,6.67,0,0,0-2.7-.18,6.58,6.58,0,0,0-2.48.76,34,34,0,0,1-3.53,1.62q-2.38,1-5.44,2.09t-6.48,2.3q-3.42,1.19-6.73,2.12a7.62,7.62,0,0,1-2.92.4,6.48,6.48,0,0,1-2.3-.58,3.85,3.85,0,0,1-1.48-1.15,1.72,1.72,0,0,1-.36-1.4q.36-2.3,0-2.27t-1,2.56a3.19,3.19,0,0,0,.29,2.27,5.76,5.76,0,0,0,2.74,2.27,7.38,7.38,0,0,0,3.64.47,11.12,11.12,0,0,0,3.64-.83q.58-.29,1.44-.65t1.84-.72l1.91-.72,1.66-.65a3.25,3.25,0,0,1,1.08-.25,1.16,1.16,0,0,1,.83.18q.25.22,0,.76A6.22,6.22,0,0,1,26.8,21q-.22.22-.79.86t-1.62,2.05q-1,1.4-2.63,3.67t-3.89,5.72q-2.3,3.46-5.44,8.24T5.2,52.78A13.3,13.3,0,0,1,4,54.4q-.5.54-.72.36t0-1.12a16.5,16.5,0,0,1,.9-2.74q.43-1.08.22-1.08T3,51.2a6.26,6.26,0,0,0-.79,1.4q-.43,1-.9,2.12a24.82,24.82,0,0,0-.83,2.38A16.7,16.7,0,0,0,0,59.26Q-.12,60.7.74,61t1.87-1q1.37-1.8,3-4.14t3.64-5.33q2-3,4.39-6.66t5.22-8.14q.86-1.37,2-3t2.41-3.46a7.21,7.21,0,0,0,2.23-.07q1.44-.14,3.67-.5t4.68-.94q-.15,1.23-.32,2.63t-.47,3q-1.44.36-2.88.76l-2.81.76a11.36,11.36,0,0,1-6,.36q-1.08-.22-1.19.22t1.19,1.22a8,8,0,0,0,3.28.94A10.79,10.79,0,0,0,28.82,37l2-.68,1.73-.61q-.29,1.51-.65,3.06t-.79,3.13l-3.74,1-3.67,1a7.58,7.58,0,0,1-2.84.36,3.92,3.92,0,0,1-1.62-.58q-.65-.43-.9-.14t.61,1.3A3.1,3.1,0,0,0,20.5,46a5.55,5.55,0,0,0,2.41.07,7.72,7.72,0,0,0-.07,1.3,32.25,32.25,0,0,0,.25,3.24q.25,2.23.68,4.75t1,4.75a11.81,11.81,0,0,0,1.12,3.17q.93,1.66,1.22,1.44c.19-.14.29-.67.29-1.58a5.41,5.41,0,0,0,.76-.22l1-.36A16.11,16.11,0,0,1,31.63,62q1.66-.25,3.64-.36a37.11,37.11,0,0,1,4,0,21.51,21.51,0,0,1,3.6.47,6.31,6.31,0,0,0,2.92.32q.54-.25-.32-1.19a3.9,3.9,0,0,0-1.51-.94,15.24,15.24,0,0,0-2.38-.72q1.66-1.23,2.81-2.12a15.26,15.26,0,0,0,2.38-2.41,13.11,13.11,0,0,0,2.63-4.21,2.7,2.7,0,0,0-.61-2.77,5.91,5.91,0,0,0-3-1.66,4,4,0,0,0-3.06.5,15.4,15.4,0,0,1-2.84,1.19q-1.69.54-2.92.9l-2.23.65q-1.23.36-2.56.83t-2.66,1A26.66,26.66,0,0,0,27,52.57a5,5,0,0,0-.61.29l-.47.29q-.36-1.87-.68-3.42t-.54-2.34a3.67,3.67,0,0,0-.36-.86q-.22-.36-.36-.65l.86-.22q1.58-.36,3-.72t2.7-.72a9.46,9.46,0,0,0-.5,2.41A3.78,3.78,0,0,0,30.26,48q.36,1.15,1,.94t1.22-2.52q.14-.72.36-1.44t.36-1.44q3.74-.94,6.08-1.37a36.22,36.22,0,0,1,3.85-.54,9.43,9.43,0,0,1,2.41.07,7,7,0,0,1,1.76.61,4,4,0,0,0,2,.68q.5-.11.22-1.33a2.82,2.82,0,0,0-1.76-1.48,9.69,9.69,0,0,0-3.35-.68L45.52,38q.65-.86,1.51-2.16,1.3-1.94,2.38-3.46L52.65,32q1.58-.22,3-.36a1.42,1.42,0,0,0,1-.5q.22-.36-.22-.79A3,3,0,0,0,55.5,29.71ZM26.59,54.19a3.55,3.55,0,0,1,.58,0,20.49,20.49,0,0,0,2.74-.54q1.51-.39,3.1-.9t3.17-1.08q1.58-.58,3-1.15,1.8-.72,3-1.15t2-.61a2.63,2.63,0,0,1,1.19-.07,2.89,2.89,0,0,1,.79.32,1.56,1.56,0,0,1,.61.79,2,2,0,0,1-.18,1.37,10.9,10.9,0,0,1-1.37,2.2,39.46,39.46,0,0,1-3,3.35,14.05,14.05,0,0,0-2.3,2.74h-.5q-1.23,0-2.77.11t-3.1.25l-3,.29a19.42,19.42,0,0,0-2.34.36l-1.08.22q-.15-1.3-.4-3t-.61-3.42A2.68,2.68,0,0,0,26.59,54.19ZM44.66,35.07a11.8,11.8,0,0,0-1,1.55,7.06,7.06,0,0,0-.54,1.3,4.42,4.42,0,0,0-.18,1.26v.36q-1.8.22-4.18.65t-5,1.08q.36-1.66.68-3.2t.68-3l1.19-.32q.61-.18,1.33-.32l4.07-.76q2.2-.39,4.57-.76Q45.31,34.21,44.66,35.07Zm5.15-7.34a8.59,8.59,0,0,1-1.55,2.59q-3,.43-6.26,1t-6.48,1.4q.29-1.51.5-2.88t.36-2.59L37.64,27l1.19-.29a28.39,28.39,0,0,1,6.91-1q2.81,0,3.6.61A1.33,1.33,0,0,1,49.81,27.73Z"/>
            <path d="M20.9,10.67q2.3-.22,4.86-.68a41,41,0,0,0,4.86-1.19A44,44,0,0,1,35.8,7.61a14.56,14.56,0,0,1,3.67-.25q2.09.15,2.38-.83T40.27,4.11A19.67,19.67,0,0,0,36.42,2,25.86,25.86,0,0,0,31.12.22q-1.8-.43-2.09,0t1.08,1l2.81,1.33a28.33,28.33,0,0,1,3.17,1.76q1,.65.94,1.19T34.65,6.63l-6.8,1.69Q24,9.3,20.47,9.87q-1.44.22-1.44.61T20.9,10.67Z"/>
            <path d="M126.42,35.79a12.68,12.68,0,0,0-3.1-3.42,13.21,13.21,0,0,0-4.28-2.2q-2.81-.86-3.13-.47T118,31.26a17,17,0,0,1,4.46,3.17,9,9,0,0,1,2.45,4,8.91,8.91,0,0,1,.29,1.84q0,.61-.83.5a9.3,9.3,0,0,1-2.59-1q-1.77-.9-4.86-2.77a3.06,3.06,0,0,0-1.44-.5.89.89,0,0,0-.76.25c-.12.17-.07.43.14.79a3.7,3.7,0,0,0,1.26,1.12q2.3,1.44,4.54,3.1a35.63,35.63,0,0,1,4,3.38,5.13,5.13,0,0,0,2,1.44q.58.07,1.15-2.16A10.81,10.81,0,0,0,128,40,11.45,11.45,0,0,0,126.42,35.79Z"/>
            <path d="M96.93,10.3q-3-.86-3.6-.29t2,1.73A26.21,26.21,0,0,1,98,13.08a5.63,5.63,0,0,1,1.58,1.3,4.05,4.05,0,0,1,.76,1.62,13.69,13.69,0,0,1,.29,2.3q.14,3.1.22,6.34t.14,6.62l-.86.32-1.08.4a103.24,103.24,0,0,0-12,5.65,64,64,0,0,0-10.22,7.16A29.82,29.82,0,0,0,77.46,41q.18-2.16.25-4.9t-.32-2.59q-.4,0-1,2.09a47.33,47.33,0,0,0-1.3,4.9q-.43,2.16-.72,4.82-.22,1.44-.32,3.1a28,28,0,0,0,0,3.17q.14,2.38,1,2.48t1.51-2.63a9.86,9.86,0,0,1,1.66-3.24,23.52,23.52,0,0,1,4-4A64.75,64.75,0,0,1,89,39.21q4.28-2.7,10.62-5.94.36-.22.72-.4l.65-.32q.07,4,0,7.88t-.18,7.67a19.46,19.46,0,0,1-.25,2.66q-.18.94-.68,1.08a2.14,2.14,0,0,1-1.48-.4,21.82,21.82,0,0,1-2.56-1.76q-1-.79-1.94-1.48l-2-1.44-2.27-1.62q-1.22-.86-2.81-1.94-.86-.65-1.15-.11t.5,1.19q1.22,1.08,2.45,2.12T92,49.19q2,1.66,3.35,3t2.41,2.52q1.73,2,2.59,1.91t2.09-2.12a8.51,8.51,0,0,0,.79-3.56q.22-2.7.22-6.23,0-4.61,0-9.25T103.34,25q-.07-1.8,0-3.85a30.39,30.39,0,0,1,.43-4.14,4.05,4.05,0,0,0-1-3.89Q101.25,11.53,96.93,10.3Z"/>
            <path d="M205.29,47.46a2.42,2.42,0,0,0-.61-.9,8.25,8.25,0,0,0-1.3-1l-2.12-1.4q-1.37-.86-3.17-1.91t-3.82-2.05q-2-1-4.18-2t-4.18-1.69q-.07-3.67-.07-7V23q1.94-1,4-2t3.92-1.76a8.42,8.42,0,0,0,2.7-1.33q.39-.47-.25-1.33a1.1,1.1,0,0,0-1.22-.32,12.89,12.89,0,0,0-2.45.9l-3.24,1.55q-1.73.83-3.46,1.76a45.66,45.66,0,0,1,.65-8.28,11.64,11.64,0,0,0,.36-5.08,3.64,3.64,0,0,0-2.23-2.34,18.35,18.35,0,0,0-2.84-1,4.58,4.58,0,0,0-1.55-.18q-.5.07-.54.32a.53.53,0,0,0,.18.47,5.6,5.6,0,0,0,.94.65q.72.43,2.52,1.44t1.22,4.18q-.29,2.09-.58,5.08t-.43,6l-2.88,1.58q-1.44.79-2.81,1.66a19.28,19.28,0,0,1-2.59,1.22,4.67,4.67,0,0,1-1.94.29,2.52,2.52,0,0,0-1.76.5,18.38,18.38,0,0,0-1.76,1.58q-1.87,1.8-4,4.07t-4.28,4.72q.07-.79.11-1.55t.11-1.55q1-2.23,1.62-4a20.12,20.12,0,0,0,.83-3,5.4,5.4,0,0,0,.18-1.48q0-.54-.32-.5t-.76.79a15.29,15.29,0,0,0-1.12,2.48q.14-1.8.32-3.42t.32-3.13q1.73-1,3-1.69a15.28,15.28,0,0,1,1.73-.83q1.08-.36,1.08-.9a1.05,1.05,0,0,0-.58-.9,2.19,2.19,0,0,0-2-.18,15.16,15.16,0,0,0-2.81,1.4q.22-1.3.47-2.56t.54-2.48q.43-1.94.65-3.13A7.4,7.4,0,0,0,165,8.83a2.78,2.78,0,0,0-.43-1.3,6,6,0,0,0-1-1.12q-2.74-2.09-3.31-1.8t.79,1.94a5.25,5.25,0,0,1,1.3,2.92,9.37,9.37,0,0,1,0,2.34,32.36,32.36,0,0,0-.76,3.6q-.4,2.38-.76,5.18-5.11,3.38-8.24,5.29a57.34,57.34,0,0,1-5,2.81,9.15,9.15,0,0,1-2.92,1,3.28,3.28,0,0,1-1.73-.29q-1.8-.79-2.12-.65t1.12,1.37a14,14,0,0,0,1.26,1.15,7.28,7.28,0,0,0,1.19.72,4.83,4.83,0,0,0,1.84.32A4.75,4.75,0,0,0,148.56,31q.58-.43,1.84-1.26t2.92-1.87l3.53-2.2q1.87-1.15,3.67-2.23-.15,1.37-.29,2.66T160,28.67q-.07,1.44-.14,2.7l-.14,2.48q-1.08,2-2.41,4.14a42,42,0,0,1-2.77,3.92,5.1,5.1,0,0,1-1.44,1.33,14.29,14.29,0,0,1-1.66.9,1.48,1.48,0,0,0-.94,1,3.45,3.45,0,0,0,.14,1.66,1.15,1.15,0,0,0,1.12.83,5.62,5.62,0,0,0,2.77-1.4,33,33,0,0,0,4.68-3.89q-.15,2.74-.29,4.86t-.22,3.71a16.58,16.58,0,0,0,.29,4.61A19.18,19.18,0,0,0,160.22,59q1.22,2.45,1.73,2.27t-.07-2.92a24,24,0,0,1-.36-3.1q-.15-2.09-.22-4.68t-.07-5.44q0-2.84.14-5.44l2-2.56q.93-1.19,2-2.41t2.27-2.59q1.22-1.37,2.88-3.1,1.37-1.51,2.45-1.15a5.81,5.81,0,0,0,2.77.5,6.22,6.22,0,0,0,2.34-.86s0,.07.14.36q.36.94-.86,4a27.76,27.76,0,0,1-2,4.18q-.65.29-1.3.61t-1.44.83q-2.81,1.66-2.63,1.8a11.71,11.71,0,0,0,3.2-.86l.43-.14.43-.14q-.94,1.44-2.05,2.88a38.46,38.46,0,0,1-2.56,3A4.73,4.73,0,0,1,168,45.22q-.47.15-.83-.58-.5-1.15-.68-.9a3.52,3.52,0,0,0-.32,1.26,3.17,3.17,0,0,0,.11,1.26,2.51,2.51,0,0,0,.54,1,1.4,1.4,0,0,0,.86.47,1.36,1.36,0,0,0,1-.29,24.63,24.63,0,0,0,4.79-4.39,29.71,29.71,0,0,0,3.71-5.4,26.32,26.32,0,0,1,3.31-.07,9.25,9.25,0,0,1,2.38.36l.43.14.5.14q0,1.94,0,3.82t0,3.49q0,1.62,0,2.84t0,1.87a29.51,29.51,0,0,1-.18,3.71,5.31,5.31,0,0,1-.5,1.87.68.68,0,0,1-.86.36,4.35,4.35,0,0,1-1.26-.76q-.65-.43-1.94-1.4t-2.74-2.12l-2.74-2.2-2-1.62q-1.87-1.37-1.91-1.08t2,2.16l2.74,2.52q1.87,1.73,3.78,3.6t3.46,3.49a12.76,12.76,0,0,1,1.84,2.2q.57,1.08,1,1t1.19-2.16a15.63,15.63,0,0,0,.61-4.82q0-2.73-.18-5.54-.15-1.58-.18-4.36t-.11-6q2.16.86,4.61,2.09t4.79,2.56q2.34,1.33,4.32,2.63a37.44,37.44,0,0,1,3.2,2.3q1.51,1.23,2,1.08t.58-1.3A3.2,3.2,0,0,0,205.29,47.46Zm-45.9-8.24a4.29,4.29,0,0,0,0,.61q-.58.58-1.12,1.22t-1.12,1.3q1.15-2,2.3-3.67A3.9,3.9,0,0,1,159.39,39.21Zm23.83-3.53a2.61,2.61,0,0,1-.47-.11,11.4,11.4,0,0,0-2.16-.36,9.62,9.62,0,0,0-2.3.14q.58-1.44,1-2.38a12.26,12.26,0,0,1,1-1.73,3.11,3.11,0,0,0,.61-1.91,5.39,5.39,0,0,0-1.26-2.63s0-.07,0-.07,0,0,0-.07a17.29,17.29,0,0,1,1.76-1.12l2.05-1.12v2.74q.07,1.44.14,3.74t.07,5A1.13,1.13,0,0,0,183.22,35.69Z"/>
        </g>
    </g>
</svg>